<?xml version="1.0" encoding="UTF-8"?>
<!DOCTYPE svg PUBLIC "-//W3C//DTD SVG 1.1//EN" "http://www.w3.org/Graphics/SVG/1.1/DTD/svg11.dtd">
<!-- Creator: CorelDRAW 2020 (64-Bit) -->
<svg xmlns="http://www.w3.org/2000/svg" xml:space="preserve" width="12.1755in" height="6.575in" version="1.1" style="shape-rendering:geometricPrecision; text-rendering:geometricPrecision; image-rendering:optimizeQuality; fill-rule:evenodd; clip-rule:evenodd"
viewBox="0 0 4534.43 2448.68"
 xmlns:xlink="http://www.w3.org/1999/xlink"
 xmlns:xodm="http://www.corel.com/coreldraw/odm/2003">
 <defs>
  <style type="text/css">
   <![CDATA[
    .fil1 {fill:#28C3DD;fill-rule:nonzero}
    .fil0 {fill:#292E4F;fill-rule:nonzero}
   ]]>
  </style>
 </defs>
 <g id="Layer_x0020_1">
  <metadata id="CorelCorpID_0Corel-Layer"/>
  <path class="fil0" d="M1086.93 762c-45.37,-45.03 -81.51,-98.49 -106.36,-157.38 -4.55,-10.88 -15.2,-17.95 -26.99,-17.91l-311.32 0.3c-96.61,0.03 -174.96,-78.27 -174.98,-174.86 -0.03,-96.61 78.25,-174.96 174.86,-174.99l526.01 0.04c96.47,0.03 174.68,78.19 174.77,174.66 1.94,63.14 52.69,113.86 115.83,115.75 28,-0.02 55.05,-10.11 76.22,-28.46 25.1,-22.11 39.5,-53.92 39.53,-87.36 0.07,-29.38 -3.11,-58.69 -9.5,-87.36 -16.73,-76.16 -54.93,-145.93 -110.09,-201.05 -76.41,-76.65 -180.25,-119.64 -288.49,-119.41l-524.35 0.37c-107.97,0.13 -211.48,43.07 -287.83,119.39 -15.9,15.89 -30.14,32.79 -42.85,50.45 -56.27,70.13 -87.65,156.81 -87.65,246.39 0,78.22 22.69,153.51 66.2,218.93 6.15,9.35 9.62,16.55 8.55,21.36 -1.07,4.81 -31.77,165.53 -31.77,165.53 -1.6,7.74 1.34,15.48 7.21,20.55 4,3.21 8.81,4.81 13.61,4.81 2.67,0 5.35,-0.53 7.75,-1.6l149.77 -59.01c4.81,-1.87 9.89,-2.93 15.22,-2.93 5.55,1.1 11.17,2.25 16.82,3.47 20.95,4.51 41.09,9.54 60.36,14.95 0.09,0 0.2,-0.01 0.28,-0.01 33.72,8.93 68.7,13.64 104.18,13.61l432.67 -0.13c7.83,0.03 15.34,-3.09 20.84,-8.66 11.31,-11.44 11.19,-29.9 -0.26,-41.21l-8.24 -8.24z"/>
  <polygon class="fil0" points="-0,1262.15 223.72,1262.15 223.72,2105.95 -0,2105.95 "/>
  <path class="fil0" d="M1117.81 1310.54c55.24,45.67 82.87,121.41 82.87,227.21l0 568.2 -226.05 0 0 -513.24c0,-44.38 -5.88,-78.45 -17.68,-102.18 -21.52,-43.35 -62.51,-65.03 -122.95,-65.03 -74.29,0 -125.25,31.73 -152.92,95.22 -14.34,33.55 -21.51,76.38 -21.51,128.5l0 456.73 -220.63 0 0 -842.24 213.65 0 0 123.09c28.26,-43.35 55,-74.58 80.17,-93.68 45.21,-34.05 102.52,-51.08 171.91,-51.08 86.85,0 157.89,22.83 213.14,68.5z"/>
  <path class="fil0" d="M2086.25 1310.54c55.22,45.67 82.83,121.41 82.83,227.21l0 568.2 -226.04 0 0 -513.24c0,-44.38 -5.87,-78.45 -17.67,-102.18 -21.48,-43.35 -62.51,-65.03 -122.96,-65.03 -74.26,0 -125.23,31.73 -152.91,95.22 -14.33,33.55 -21.5,76.38 -21.5,128.5l0 456.73 -220.63 0 0 -842.24 213.65 0 0 123.09c28.26,-43.35 55,-74.58 80.17,-93.68 45.2,-34.05 102.5,-51.08 171.93,-51.08 86.82,0 157.86,22.83 213.13,68.5z"/>
  <path class="fil0" d="M223.73 1021.15c0,61.78 -50.08,111.85 -111.86,111.85 -61.78,0 -111.86,-50.08 -111.86,-111.85 0,-61.78 50.09,-111.86 111.86,-111.86 61.78,0 111.86,50.09 111.86,111.86z"/>
  <path class="fil1" d="M2306.67 659.09c-1.07,-4.81 2.41,-12.01 8.55,-21.36 43.51,-65.42 66.21,-140.71 66.21,-218.94 0,-81.13 -25.78,-159.87 -72.42,-226.11 -16.16,-25.95 -35.38,-50.52 -57.91,-73.07 -76.17,-76.65 -179.8,-119.71 -287.87,-119.61l-432.67 0.14c-7.83,-0.03 -15.34,3.09 -20.84,8.65 -3.62,3.67 -5.94,8.07 -7.22,12.72 -0.07,0.16 -0.16,0.32 -0.24,0.48 -4.46,11.04 -1.77,23.68 6.81,31.93l7.63 7.63c45.25,45.05 81.23,98.5 105.96,157.37 4.54,10.89 15.19,17.96 26.99,17.92l310.08 0.12c96.6,-0.03 174.94,78.25 174.98,174.86 0.02,41.98 -14.78,80.5 -39.42,110.66 -32.06,37.08 -79.41,60.59 -132.28,60.59l-526.01 -0.04c-96.47,-0.03 -174.68,-78.19 -174.77,-174.66 -1.94,-63.14 -52.69,-113.86 -115.83,-115.76 -28.01,0.02 -55.06,10.13 -76.22,28.46 -10.31,9.09 -18.71,19.88 -25.15,31.68 -10.66,17.85 -16.5,38.4 -16.52,59.62 -0.09,47.8 8.3,95.23 24.77,140.09 2.27,6.38 4.95,12.36 7.42,18.54 2.48,6.17 5.58,12.16 8.25,18.12 2.68,5.98 5.77,11.95 8.86,17.52l8.87 15.45c6.17,10.29 12.78,20.18 19.78,30.07 8.68,11.67 17.96,22.88 27.84,33.57l14.41 14.41 1.25 1.24 13.8 10.91c4.73,4.32 10.51,8.03 15.87,13.39l7 7.01 16.28 12.14 7.83 5.35 14.43 9.48 2.27 2.26c63.33,37.88 135.75,57.87 209.55,57.83l524.57 -0.17c44.11,-0.01 86.54,-7.11 126.33,-20.07 13.07,-3.39 26.37,-6.65 40.17,-9.62 5.65,-1.22 11.27,-2.37 16.82,-3.47 5.34,0 10.41,1.07 15.22,2.94l149.79 59.01c2.39,1.07 5.07,1.6 7.74,1.6 4.8,0 9.61,-1.6 13.61,-4.8 5.88,-5.08 8.82,-12.82 7.22,-20.56 0,0 -30.71,-160.73 -31.78,-165.54z"/>
  <path class="fil1" d="M2278.24 2269.44c6.1,0.09 15.2,0.2 26.32,0.24 10.38,0.05 15.58,0.07 17.69,-0.04 14.23,-0.73 30.16,-6.54 40.8,-15.24 25.22,-20.66 21.61,-58.42 21.23,-61.74l0 -926.62 220.63 0 0 930.5c0.74,17.64 4.06,138.06 -75.35,198.46 0,0 -55.8,42.44 -172.36,51.58 -15.1,1.19 -31.44,1.72 -31.45,1.72 -19.01,0.62 -35.13,0.4 -47.26,0 -0.08,-59.62 -0.16,-119.23 -0.25,-178.85z"/>
  <path class="fil1" d="M3341.89 1880.78c34.57,-45.87 51.87,-111.06 51.87,-195.57 0,-84.5 -17.29,-149.6 -51.87,-195.21 -34.57,-45.61 -84.12,-68.38 -148.63,-68.38 -64.51,0 -114.18,22.77 -149.01,68.38 -34.84,45.61 -52.26,110.7 -52.26,195.21 0,84.51 17.41,149.7 52.26,195.57 34.83,45.87 84.5,68.8 149.01,68.8 64.51,0 114.06,-22.93 148.63,-68.8zm176.5 121.95c-71.21,87.87 -179.34,131.87 -324.35,131.87 -145.03,0 -253.13,-43.99 -324.35,-131.87 -71.23,-87.92 -106.84,-193.79 -106.84,-317.52 0,-121.7 35.61,-227.13 106.84,-316.35 71.22,-89.22 179.33,-133.79 324.35,-133.79 145.01,0 253.14,44.57 324.35,133.79 71.22,89.22 106.83,194.66 106.83,316.35 0,123.74 -35.61,229.6 -106.83,317.52z"/>
  <path class="fil1" d="M3816.43 2267.75l27.87 1.55c21.68,1.04 42.31,0.26 61.93,-2.32 19.61,-2.58 36.13,-8.51 49.54,-17.81 12.9,-8.77 24.9,-27.09 36,-54.96 11.1,-27.88 15.87,-44.9 14.32,-51.09l-310.04 -880.96 245.4 0 184.25 622.39 174.18 -622.39 234.56 0 -289.27 829.86c-55.93,159.99 -100.15,259.21 -132.7,297.66 -32.54,38.45 -97.62,57.67 -195.3,57.67 -19.61,0 -35.38,-0.13 -47.26,-0.39 -11.9,-0.25 -29.73,-1.15 -53.47,-2.71l0 -176.5z"/>
  <path class="fil1" d="M2605.15 1021.15c0,61.78 -50.09,111.85 -111.86,111.85 -61.78,0 -111.85,-50.08 -111.85,-111.85 0,-61.78 50.07,-111.86 111.85,-111.86 61.78,0 111.86,50.09 111.86,111.86z"/>
 </g>
</svg>
