<?xml version="1.0" encoding="UTF-8"?>
<!DOCTYPE svg PUBLIC "-//W3C//DTD SVG 1.1//EN" "http://www.w3.org/Graphics/SVG/1.1/DTD/svg11.dtd">
<!-- Creator: CorelDRAW 2020 (64-Bit) -->
<svg xmlns="http://www.w3.org/2000/svg" xml:space="preserve" width="12.1435in" height="6.55772in" version="1.1" style="shape-rendering:geometricPrecision; text-rendering:geometricPrecision; image-rendering:optimizeQuality; fill-rule:evenodd; clip-rule:evenodd"
viewBox="0 0 1658.58 895.67"
 xmlns:xlink="http://www.w3.org/1999/xlink"
 xmlns:xodm="http://www.corel.com/coreldraw/odm/2003">
 <defs>
  <style type="text/css">
   <![CDATA[
    .fil1 {fill:#91D631;fill-rule:nonzero}
    .fil0 {fill:#FFFFF7;fill-rule:nonzero}
   ]]>
  </style>
 </defs>
 <g id="Layer_x0020_1">
  <metadata id="CorelCorpID_0Corel-Layer"/>
  <path class="fil0" d="M122.73 159.51c-0.83,-15.19 -3.04,-55.55 27.75,-86.36 28.51,-28.53 66.46,-29.22 77.65,-28.72l143.91 -0.32c9.73,-0.06 29.24,-0.18 55.44,-0.32 17.2,-0.09 26.68,-0.13 34.75,1.67 17.9,4 34.76,13.58 48.75,27.7 27.96,28.2 30.64,64.29 30.5,78.5l-0.01 0c0,0.05 0.02,0.1 0.02,0.15 0,3.15 -2.55,5.7 -5.7,5.7 -3.15,0 -5.7,-2.55 -5.7,-5.7 0,-0.09 0.02,-0.18 0.03,-0.27l-0.01 0c0.13,-12.78 -2.26,-45.21 -27.2,-70.37 -12.46,-12.57 -27.39,-21.08 -43.16,-24.6 -6.54,-1.46 -14.6,-1.49 -32.21,-1.4 -26.19,0.13 -45.7,0.25 -55.45,0.32l-144.21 0.32 -0.14 -0.01c-9.83,-0.45 -43.88,0.04 -69.21,25.38 -27.2,27.22 -25.19,63.89 -24.43,77.69 0.58,10.53 2.33,42.58 26.35,66.98 18.83,19.13 42.5,24.64 52.61,27 11.29,2.63 19.64,2.86 34.63,3.08 27.56,0.39 55.96,0.39 84.42,0 0,0 0.01,-0 0.02,-0 0,0 0.01,0 0.01,0l0.13 -0 0 0.01c3.08,0.08 5.56,2.59 5.56,5.69 0,3.05 -2.4,5.51 -5.4,5.67l0 0.01c-0.04,0 -0.08,0 -0.12,0 -0.06,0 -0.12,0.02 -0.18,0.02 -0.05,0 -0.09,-0.01 -0.14,-0.02 -14.16,0.19 -28.31,0.29 -42.35,0.29 -14.18,0 -28.25,-0.1 -42.1,-0.3 -15.35,-0.22 -24.65,-0.48 -37.05,-3.37 -11.07,-2.58 -36.99,-8.62 -58.14,-30.1 -27.04,-27.47 -28.97,-62.75 -29.61,-74.34zm45.63 128.8c2.04,0.4 4.09,0.82 6.15,1.27 7.67,1.65 15.03,3.49 22.08,5.47 0.03,-0 0.07,-0.01 0.1,-0.01 12.33,3.27 25.13,4.99 38.11,4.98l158.26 -0.05c2.86,0.01 5.61,-1.13 7.62,-3.17 4.14,-4.19 4.1,-10.93 -0.09,-15.07l-3.02 -3.01c-16.59,-16.47 -29.81,-36.02 -38.91,-57.56 -1.66,-3.98 -5.56,-6.57 -9.87,-6.55l-113.87 0.11c-35.34,0.01 -63.99,-28.63 -64,-63.96 -0.01,-35.34 28.63,-63.99 63.96,-64l192.4 0.02c35.29,0.01 63.9,28.6 63.93,63.89 0.71,23.1 19.27,41.65 42.37,42.34 10.24,-0.01 20.14,-3.7 27.88,-10.41 9.18,-8.09 14.45,-19.73 14.46,-31.96 0.03,-10.74 -1.14,-21.46 -3.48,-31.95 -6.12,-27.86 -20.09,-53.38 -40.27,-73.54 -27.95,-28.04 -65.93,-43.76 -105.52,-43.68l-191.8 0.14c-39.49,0.05 -77.35,15.75 -105.28,43.67 -5.81,5.81 -11.02,11.99 -15.67,18.45 -20.58,25.65 -32.06,57.36 -32.06,90.12 0,28.61 8.3,56.15 24.22,80.08 2.25,3.42 3.52,6.05 3.12,7.81 -0.39,1.76 -11.62,60.55 -11.62,60.55 -0.59,2.83 0.49,5.66 2.63,7.52 1.47,1.17 3.22,1.76 4.98,1.76 0.98,0 1.95,-0.2 2.83,-0.59l54.79 -21.58c1.76,-0.69 3.61,-1.08 5.57,-1.08z"/>
  <polygon class="fil0" points="-0,770.3 81.83,770.3 81.83,461.66 -0,461.66 "/>
  <path class="fil0" d="M408.87 479.36c-20.21,-16.71 -46.2,-25.06 -77.96,-25.06 -25.38,0 -46.34,6.23 -62.88,18.69 -9.21,6.98 -18.99,18.41 -29.33,34.26l0 -45.02 -78.15 0 0 308.07 80.7 0 0 -167.06c0,-19.06 2.62,-34.73 7.87,-47 10.12,-23.22 28.76,-34.83 55.93,-34.83 22.11,0 37.1,7.93 44.98,23.79 4.31,8.68 6.47,21.14 6.47,37.38l0 187.73 82.68 0 0 -207.84c0,-38.7 -10.11,-66.4 -30.31,-83.11z"/>
  <path class="fil0" d="M763.1 479.36c-20.22,-16.71 -46.2,-25.06 -77.96,-25.06 -25.39,0 -46.35,6.23 -62.88,18.69 -9.21,6.98 -18.99,18.41 -29.33,34.26l0 -45.02 -78.15 0 0 308.07 80.7 0 0 -167.06c0,-19.06 2.63,-34.73 7.87,-47 10.12,-23.22 28.76,-34.83 55.93,-34.83 22.11,0 37.12,7.93 44.98,23.79 4.32,8.68 6.47,21.14 6.47,37.38l0 187.73 82.68 0 0 -207.84c0,-38.7 -10.1,-66.4 -30.3,-83.11z"/>
  <path class="fil0" d="M40.92 332.59c-22.6,0 -40.92,18.32 -40.92,40.92 0,22.6 18.32,40.92 40.92,40.92 22.6,0 40.92,-18.32 40.92,-40.92 0,-22.6 -18.32,-40.92 -40.92,-40.92z"/>
  <path class="fil1" d="M493.07 262.12c-17.9,-4 -34.76,-13.58 -48.75,-27.7 -27.96,-28.2 -30.64,-64.29 -30.5,-78.5l0.01 0c-0,-0.05 -0.02,-0.1 -0.02,-0.15 0,-3.15 2.55,-5.7 5.7,-5.7 3.15,0 5.7,2.55 5.7,5.7 0,0.09 -0.02,0.18 -0.03,0.27l0.02 0c-0.13,12.78 2.26,45.21 27.2,70.37 12.46,12.57 27.39,21.08 43.16,24.6 6.54,1.46 14.6,1.49 32.21,1.4 26.19,-0.13 45.7,-0.25 55.45,-0.32l144.21 -0.32 0.14 0.01c9.83,0.45 43.88,-0.04 69.21,-25.39 27.2,-27.22 25.19,-63.89 24.43,-77.69 -0.58,-10.53 -2.33,-42.58 -26.35,-66.98 -18.83,-19.13 -42.5,-24.64 -52.61,-27 -11.29,-2.63 -19.64,-2.86 -34.63,-3.08 -27.56,-0.39 -55.96,-0.39 -84.42,-0 -0.01,0 -0.01,0 -0.02,0 -0.01,0 -0.01,-0 -0.01,-0l-0.13 0 0 -0.01c-3.08,-0.08 -5.56,-2.59 -5.56,-5.69 0,-3.05 2.4,-5.51 5.4,-5.67l0 -0.01c0.04,0 0.08,0 0.12,-0 0.06,-0 0.12,-0.02 0.18,-0.02 0.05,0 0.09,0.01 0.14,0.01 14.16,-0.19 28.31,-0.29 42.35,-0.29 14.18,0 28.25,0.1 42.1,0.3 15.35,0.22 24.65,0.48 37.05,3.37 11.07,2.58 36.99,8.62 58.14,30.1 27.04,27.46 28.97,62.75 29.61,74.34 0.83,15.19 3.04,55.55 -27.75,86.36 -28.51,28.53 -66.46,29.22 -77.65,28.71l-143.91 0.32c-9.73,0.06 -29.24,0.18 -55.44,0.32 -17.2,0.09 -26.68,0.13 -34.75,-1.67zm224.42 37.68c16.14,-0 31.66,-2.6 46.21,-7.34 4.78,-1.24 9.65,-2.43 14.69,-3.52 2.07,-0.44 4.12,-0.87 6.15,-1.27 1.95,0 3.81,0.39 5.57,1.07l54.79 21.58c0.88,0.39 1.86,0.59 2.83,0.59 1.76,0 3.52,-0.59 4.98,-1.76 2.15,-1.86 3.22,-4.69 2.64,-7.52 0,0 -11.23,-58.79 -11.62,-60.55 -0.39,-1.76 0.88,-4.4 3.12,-7.81 15.92,-23.93 24.22,-51.46 24.22,-80.08 0,-29.68 -9.43,-58.48 -26.49,-82.71 -5.91,-9.49 -12.94,-18.48 -21.18,-26.72 -27.86,-28.04 -65.77,-43.79 -105.3,-43.75l-158.26 0.05c-2.86,-0.01 -5.61,1.13 -7.62,3.17 -1.32,1.34 -2.17,2.95 -2.64,4.65 -0.03,0.06 -0.06,0.12 -0.09,0.18 -1.63,4.04 -0.65,8.66 2.49,11.68l2.79 2.79c16.55,16.48 29.71,36.03 38.76,57.57 1.66,3.98 5.56,6.57 9.87,6.55l113.42 0.04c35.34,-0.01 63.99,28.63 64,63.96 0.01,15.36 -5.4,29.44 -14.42,40.48 -11.73,13.56 -29.04,22.16 -48.38,22.16l-192.4 -0.01c-35.29,-0.01 -63.89,-28.6 -63.93,-63.89 -0.71,-23.1 -19.27,-41.65 -42.37,-42.34 -10.24,0.01 -20.14,3.7 -27.88,10.41 -3.77,3.32 -6.84,7.27 -9.2,11.59 -3.9,6.53 -6.04,14.05 -6.04,21.81 -0.03,17.48 3.04,34.83 9.06,51.24 0.83,2.34 1.81,4.52 2.72,6.78 0.9,2.26 2.04,4.44 3.02,6.63 0.98,2.19 2.11,4.37 3.24,6.4l3.24 5.65c2.26,3.77 4.68,7.39 7.24,11 3.17,4.27 6.57,8.37 10.18,12.28l5.28 5.27 0.45 0.45 5.05 3.99c1.73,1.58 3.85,2.94 5.8,4.9l2.56 2.56 5.95 4.44 2.86 1.96 5.28 3.46 0.83 0.83c23.17,13.86 49.66,21.16 76.65,21.15l191.87 -0.06z"/>
  <path class="fil1" d="M952.81 463.08l-80.7 0 0 338.94c0.13,1.21 1.46,15.02 -7.77,22.58 -3.89,3.18 -9.72,5.31 -14.92,5.58 -0.77,0.04 -2.67,0.03 -6.47,0.02 -4.07,-0.02 -7.4,-0.06 -9.63,-0.09 0.03,21.81 0.06,43.61 0.09,65.42 4.44,0.15 10.34,0.23 17.29,0 0,0 5.98,-0.2 11.5,-0.63 42.64,-3.34 63.05,-18.87 63.05,-18.87 29.04,-22.09 27.83,-66.14 27.56,-72.59l0 -340.35z"/>
  <path class="fil1" d="M1222.38 687.94c-12.65,16.78 -30.77,25.17 -54.37,25.17 -23.6,0 -41.77,-8.39 -54.51,-25.17 -12.74,-16.78 -19.11,-40.62 -19.11,-71.53 0,-30.91 6.37,-54.72 19.11,-71.4 12.74,-16.68 30.91,-25.01 54.51,-25.01 23.6,0 41.72,8.33 54.37,25.01 12.65,16.68 18.97,40.49 18.97,71.4 0,30.91 -6.32,54.76 -18.97,71.53zm-54.08 -236.19c-53.04,0 -92.59,16.31 -118.64,48.94 -26.05,32.63 -39.08,71.2 -39.08,115.71 0,45.26 13.02,83.98 39.08,116.14 26.05,32.14 65.6,48.23 118.64,48.23 53.04,0 92.59,-16.09 118.64,-48.23 26.05,-32.16 39.08,-70.88 39.08,-116.14 0,-44.51 -13.02,-83.08 -39.08,-115.71 -26.05,-32.63 -65.6,-48.94 -118.64,-48.94z"/>
  <path class="fil1" d="M1572.78 461.67l-63.71 227.66 -67.39 -227.66 -89.76 0 113.4 322.23c0.57,2.26 -1.18,8.49 -5.24,18.69 -4.06,10.19 -8.45,16.89 -13.17,20.1 -4.91,3.4 -10.95,5.57 -18.12,6.51 -7.17,0.94 -14.72,1.23 -22.65,0.85l-10.19 -0.57 0 64.56c8.68,0.57 15.21,0.9 19.56,0.99 4.34,0.1 10.11,0.14 17.28,0.14 35.73,0 59.53,-7.03 71.44,-21.09 11.91,-14.06 28.08,-50.36 48.54,-108.87l105.81 -303.54 -85.8 0z"/>
  <path class="fil1" d="M911.98 332.59c-22.6,0 -40.92,18.32 -40.92,40.92 0,22.6 18.32,40.92 40.92,40.92 22.6,0 40.92,-18.32 40.92,-40.92 0,-22.6 -18.32,-40.92 -40.92,-40.92z"/>
 </g>
</svg>
