<?xml version="1.0" encoding="UTF-8"?>
<!DOCTYPE svg PUBLIC "-//W3C//DTD SVG 1.1//EN" "http://www.w3.org/Graphics/SVG/1.1/DTD/svg11.dtd">
<!-- Creator: CorelDRAW 2020 (64-Bit) -->
<svg xmlns="http://www.w3.org/2000/svg" xml:space="preserve" width="1.38175in" height="0.746173in" version="1.1" style="shape-rendering:geometricPrecision; text-rendering:geometricPrecision; image-rendering:optimizeQuality; fill-rule:evenodd; clip-rule:evenodd"
viewBox="0 0 8.8 4.75"
 xmlns:xlink="http://www.w3.org/1999/xlink"
 xmlns:xodm="http://www.corel.com/coreldraw/odm/2003">
 <defs>
  <style type="text/css">
   <![CDATA[
    .fil0 {fill:#FEFEFE;fill-rule:nonzero}
   ]]>
  </style>
 </defs>
 <g id="Katman_x0020_1">
  <metadata id="CorelCorpID_0Corel-Layer"/>
  <g id="_2689845023280">
   <path class="fil0" d="M0.89 1.53c0.01,0 0.02,0 0.03,0.01 0.04,0.01 0.08,0.02 0.12,0.03 0,-0 0,-0 0,-0 0.07,0.02 0.13,0.03 0.2,0.03l0.84 -0c0.02,0 0.03,-0.01 0.04,-0.02 0.02,-0.02 0.02,-0.06 -0,-0.08l-0.02 -0.02c-0.09,-0.09 -0.16,-0.19 -0.21,-0.31 -0.01,-0.02 -0.03,-0.03 -0.05,-0.03l-0.6 0c-0.19,0 -0.34,-0.15 -0.34,-0.34 -0,-0.19 0.15,-0.34 0.34,-0.34l1.02 0c0.19,0 0.34,0.15 0.34,0.34 0,0.12 0.1,0.22 0.22,0.22 0.05,-0 0.11,-0.02 0.15,-0.06 0.05,-0.04 0.08,-0.1 0.08,-0.17 0,-0.06 -0.01,-0.11 -0.02,-0.17 -0.03,-0.15 -0.11,-0.28 -0.21,-0.39 -0.15,-0.15 -0.35,-0.23 -0.56,-0.23l-1.02 0c-0.21,0 -0.41,0.08 -0.56,0.23 -0.03,0.03 -0.06,0.06 -0.08,0.1 -0.11,0.14 -0.17,0.3 -0.17,0.48 0,0.15 0.04,0.3 0.13,0.42 0.01,0.02 0.02,0.03 0.02,0.04 -0,0.01 -0.06,0.32 -0.06,0.32 -0,0.02 0,0.03 0.01,0.04 0.01,0.01 0.02,0.01 0.03,0.01 0.01,0 0.01,-0 0.01,-0l0.29 -0.11c0.01,-0 0.02,-0.01 0.03,-0.01z"/>
   <polygon class="fil0" points="0,4.09 0.43,4.09 0.43,2.45 0,2.45 "/>
   <path class="fil0" d="M2.17 2.54c-0.11,-0.09 -0.25,-0.13 -0.41,-0.13 -0.13,0 -0.25,0.03 -0.33,0.1 -0.05,0.04 -0.1,0.1 -0.16,0.18l0 -0.24 -0.41 0 0 1.63 0.43 0 0 -0.89c0,-0.1 0.01,-0.18 0.04,-0.25 0.05,-0.12 0.15,-0.18 0.3,-0.18 0.12,0 0.2,0.04 0.24,0.13 0.02,0.05 0.03,0.11 0.03,0.2l0 1 0.44 0 0 -1.1c0,-0.21 -0.05,-0.35 -0.16,-0.44z"/>
   <path class="fil0" d="M4.05 2.54c-0.11,-0.09 -0.25,-0.13 -0.41,-0.13 -0.13,0 -0.25,0.03 -0.33,0.1 -0.05,0.04 -0.1,0.1 -0.16,0.18l0 -0.24 -0.41 0 0 1.63 0.43 0 0 -0.89c0,-0.1 0.01,-0.18 0.04,-0.25 0.05,-0.12 0.15,-0.18 0.3,-0.18 0.12,0 0.2,0.04 0.24,0.13 0.02,0.05 0.03,0.11 0.03,0.2l0 1 0.44 0 0 -1.1c0,-0.21 -0.05,-0.35 -0.16,-0.44z"/>
   <path class="fil0" d="M0.22 1.76c-0.12,0 -0.22,0.1 -0.22,0.22 0,0.12 0.1,0.22 0.22,0.22 0.12,0 0.22,-0.1 0.22,-0.22 0,-0.12 -0.1,-0.22 -0.22,-0.22z"/>
   <path class="fil0" d="M3.81 1.59c0.09,0 0.17,-0.01 0.25,-0.04 0.03,-0.01 0.05,-0.01 0.08,-0.02 0.01,-0 0.02,-0 0.03,-0.01 0.01,0 0.02,0 0.03,0.01l0.29 0.11c0,0 0.01,0 0.02,0 0.01,0 0.02,-0 0.03,-0.01 0.01,-0.01 0.02,-0.02 0.01,-0.04 0,0 -0.06,-0.31 -0.06,-0.32 -0,-0.01 0,-0.02 0.02,-0.04 0.08,-0.13 0.13,-0.27 0.13,-0.42 0,-0.16 -0.05,-0.31 -0.14,-0.44 -0.03,-0.05 -0.07,-0.1 -0.11,-0.14 -0.15,-0.15 -0.35,-0.23 -0.56,-0.23l-0.84 0c-0.02,-0 -0.03,0.01 -0.04,0.02 -0.01,0.01 -0.01,0.02 -0.01,0.02 -0,0 -0,0 -0,0 -0.01,0.02 -0,0.05 0.01,0.06l0.01 0.01c0.09,0.09 0.16,0.19 0.21,0.31 0.01,0.02 0.03,0.03 0.05,0.03l0.6 0c0.19,-0 0.34,0.15 0.34,0.34 0,0.08 -0.03,0.16 -0.08,0.21 -0.06,0.07 -0.15,0.12 -0.26,0.12l-1.02 -0c-0.19,-0 -0.34,-0.15 -0.34,-0.34 -0,-0.12 -0.1,-0.22 -0.22,-0.22 -0.05,0 -0.11,0.02 -0.15,0.06 -0.02,0.02 -0.04,0.04 -0.05,0.06 -0.02,0.03 -0.03,0.07 -0.03,0.12 -0,0.09 0.02,0.18 0.05,0.27 0,0.01 0.01,0.02 0.01,0.04 0,0.01 0.01,0.02 0.02,0.04 0.01,0.01 0.01,0.02 0.02,0.03l0.02 0.03c0.01,0.02 0.02,0.04 0.04,0.06 0.02,0.02 0.03,0.04 0.05,0.07l0.03 0.03 0 0 0.03 0.02c0.01,0.01 0.02,0.02 0.03,0.03l0.01 0.01 0.03 0.02 0.02 0.01 0.03 0.02 0 0c0.12,0.07 0.26,0.11 0.41,0.11l1.02 -0z"/>
   <path class="fil0" d="M5.05 2.46l-0.43 0 0 1.8c0,0.01 0.01,0.08 -0.04,0.12 -0.02,0.02 -0.05,0.03 -0.08,0.03 -0,0 -0.01,0 -0.03,0 -0.02,-0 -0.04,-0 -0.05,-0 0,0.12 0,0.23 0,0.35 0.02,0 0.05,0 0.09,0 0,0 0.03,-0 0.06,-0 0.23,-0.02 0.33,-0.1 0.33,-0.1 0.15,-0.12 0.15,-0.35 0.15,-0.39l0 -1.81z"/>
   <path class="fil0" d="M6.48 3.65c-0.07,0.09 -0.16,0.13 -0.29,0.13 -0.13,0 -0.22,-0.04 -0.29,-0.13 -0.07,-0.09 -0.1,-0.22 -0.1,-0.38 0,-0.16 0.03,-0.29 0.1,-0.38 0.07,-0.09 0.16,-0.13 0.29,-0.13 0.13,0 0.22,0.04 0.29,0.13 0.07,0.09 0.1,0.21 0.1,0.38 0,0.16 -0.03,0.29 -0.1,0.38zm-0.29 -1.25c-0.28,0 -0.49,0.09 -0.63,0.26 -0.14,0.17 -0.21,0.38 -0.21,0.61 0,0.24 0.07,0.45 0.21,0.62 0.14,0.17 0.35,0.26 0.63,0.26 0.28,0 0.49,-0.09 0.63,-0.26 0.14,-0.17 0.21,-0.38 0.21,-0.62 0,-0.24 -0.07,-0.44 -0.21,-0.61 -0.14,-0.17 -0.35,-0.26 -0.63,-0.26z"/>
   <path class="fil0" d="M8.01 3.66l-0.36 -1.21 -0.48 0 0.6 1.71c0,0.01 -0.01,0.05 -0.03,0.1 -0.02,0.05 -0.04,0.09 -0.07,0.11 -0.03,0.02 -0.06,0.03 -0.1,0.03 -0.04,0.01 -0.08,0.01 -0.12,0l-0.05 -0 0 0.34c0.05,0 0.08,0 0.1,0.01 0.02,0 0.05,0 0.09,0 0.19,0 0.32,-0.04 0.38,-0.11 0.06,-0.07 0.15,-0.27 0.26,-0.58l0.56 -1.61 -0.46 0 -0.34 1.21z"/>
   <path class="fil0" d="M4.84 1.76c-0.12,0 -0.22,0.1 -0.22,0.22 0,0.12 0.1,0.22 0.22,0.22 0.12,0 0.22,-0.1 0.22,-0.22 0,-0.12 -0.1,-0.22 -0.22,-0.22z"/>
  </g>
 </g>
</svg>
